<svg width="52" height="55" viewBox="0 0 52 55" fill="none" xmlns="http://www.w3.org/2000/svg">
<path d="M24.0514 -0.00146467C11.2072 -0.003038 0.794811 10.4104 0.796387 23.2551V38.3335V54.7727H15.4498V46.0008V44.8665V44.7836C18.1815 45.9006 21.1004 46.4879 24.0514 46.5131C26.9956 46.5135 29.8059 45.9516 32.3984 44.9539L36.3801 49.5886L40.7453 54.6764L51.2038 45.6765L46.8253 40.6035L43.2256 36.4218C45.7996 32.6789 47.3071 28.1426 47.3065 23.2566C47.3081 10.4119 36.8958 -0.00155879 24.0514 1.73444e-05V-0.00146467ZM24.0514 3.37167C35.0325 3.3715 43.935 12.2738 43.9349 23.2551C43.935 34.2364 35.0325 43.1387 24.0514 43.1385C19.3726 43.1213 14.8513 41.446 11.283 38.4194V51.401H4.16804V38.3335V35.3157V35.2595V23.2566C4.16775 12.2753 13.0704 3.37295 24.0514 3.37315V3.37167ZM24.0514 10.4896C22.3746 10.4893 20.7141 10.8194 19.1649 11.4609C17.6156 12.1025 16.2079 13.043 15.0222 14.2287C13.8365 15.4144 12.896 16.8221 12.2544 18.3714C11.6128 19.9207 11.2827 21.5812 11.283 23.258C11.2827 24.9349 11.6128 26.5954 12.2544 28.1447C12.896 29.694 13.8365 31.1017 15.0222 32.2874C16.2079 33.4731 17.6156 34.4136 19.1649 35.0552C20.7141 35.6967 22.3746 36.0268 24.0514 36.0265C25.7283 36.0268 27.3888 35.6967 28.938 35.0552C30.4873 34.4136 31.8949 33.4731 33.0807 32.2874C34.2664 31.1017 35.2069 29.694 35.8485 28.1447C36.4901 26.5954 36.8202 24.9349 36.8199 23.258C36.8202 21.5812 36.4901 19.9207 35.8485 18.3714C35.2069 16.8221 34.2664 15.4144 33.0807 14.2287C31.8949 13.043 30.4873 12.1025 28.938 11.4609C27.3888 10.8194 25.7283 10.4893 24.0514 10.4896ZM24.0514 14.6564C24.127 14.6554 24.2025 14.6554 24.278 14.6564C24.3773 14.6601 24.4765 14.6655 24.5756 14.6727C24.6231 14.6782 24.6705 14.6841 24.7178 14.6905C24.9978 14.7143 25.2765 14.7519 25.5529 14.803C25.5717 14.8029 25.5904 14.8029 25.6092 14.803C25.6755 14.8175 25.7417 14.8328 25.8076 14.8489C25.9073 14.8723 26.0065 14.8975 26.1052 14.9244C26.2764 14.9661 26.4463 15.013 26.6146 15.0651C26.772 15.1124 26.9281 15.1643 27.0825 15.2206C27.0884 15.2265 27.0944 15.2324 27.1003 15.2383C27.2333 15.2869 27.3652 15.3387 27.4957 15.3938C27.5239 15.409 27.552 15.4243 27.5801 15.4397C27.6846 15.485 27.7883 15.5324 27.891 15.5819C27.9431 15.6095 27.995 15.6376 28.0465 15.6663C28.1954 15.742 28.342 15.8219 28.4863 15.9062C28.4917 15.9121 28.4971 15.918 28.5026 15.9239C28.5602 15.9563 28.6175 15.9894 28.6743 16.0231C28.7648 16.0826 28.8542 16.1439 28.9423 16.2067C29.0338 16.2667 29.1242 16.3284 29.2133 16.3918C29.2606 16.4289 29.3075 16.4664 29.354 16.5044C29.4843 16.6048 29.6117 16.709 29.736 16.8168C29.7459 16.8262 29.7558 16.8355 29.7656 16.8449C29.8084 16.882 29.8509 16.9195 29.893 16.9575C29.975 17.0363 30.0555 17.1168 30.1343 17.1988C30.3174 17.3795 30.4923 17.5682 30.6585 17.7645C30.7061 17.8211 30.753 17.8784 30.7992 17.9362C30.8091 17.9515 30.819 17.9668 30.8288 17.9822C30.9111 18.0845 30.9911 18.1886 31.0687 18.2946C31.0936 18.3275 31.1183 18.3605 31.1427 18.3938C31.2011 18.4826 31.2579 18.5724 31.313 18.6633C31.3467 18.7197 31.3798 18.7764 31.4122 18.8336C31.4964 18.968 31.5769 19.1048 31.6536 19.2437C31.6595 19.2595 31.6655 19.2753 31.6713 19.2911C31.6995 19.3427 31.7272 19.3945 31.7543 19.4466C31.8032 19.5498 31.8501 19.654 31.8949 19.759C31.9109 19.7866 31.9267 19.8142 31.9423 19.8419C31.9974 19.9729 32.0492 20.1052 32.0978 20.2388C32.1265 20.3144 32.1541 20.3904 32.1807 20.4668C32.2098 20.5557 32.2374 20.645 32.2636 20.7348C32.316 20.8992 32.3634 21.0651 32.4058 21.2324C32.4322 21.3306 32.4569 21.4294 32.4798 21.5285C32.4965 21.5994 32.5123 21.6705 32.5272 21.7417C32.5803 22.0328 32.6184 22.3263 32.6412 22.6213C32.647 22.6686 32.6524 22.716 32.6575 22.7634C32.6651 22.8621 32.671 22.9608 32.6753 23.0596C32.6752 23.0655 32.6752 23.0714 32.6753 23.0774C32.6752 23.0833 32.6752 23.0892 32.6753 23.0951C32.6752 23.1006 32.6752 23.106 32.6753 23.1114C32.6752 23.1173 32.6752 23.1233 32.6753 23.1292C32.6752 23.1346 32.6752 23.1401 32.6753 23.1455C32.6752 23.1514 32.6752 23.1573 32.6753 23.1633C32.6752 23.1692 32.6752 23.1751 32.6753 23.181C32.6752 23.1865 32.6752 23.1919 32.6753 23.1973C32.6752 23.2032 32.6752 23.2092 32.6753 23.2151C32.6752 23.2205 32.6752 23.2259 32.6753 23.2314C32.6752 23.2373 32.6752 23.2432 32.6753 23.2491C32.6752 23.2551 32.6752 23.261 32.6753 23.2669C32.6752 23.2723 32.6752 23.2778 32.6753 23.2832C32.6752 23.2891 32.6752 23.295 32.6753 23.301C32.6752 23.3064 32.6752 23.3118 32.6753 23.3172C32.6752 23.3232 32.6752 23.3291 32.6753 23.335C32.6744 23.8244 32.6318 24.3129 32.5479 24.795C32.5421 24.8227 32.5362 24.8503 32.5301 24.8779C32.4499 25.311 32.3366 25.7372 32.191 26.1529C32.1756 26.1959 32.1598 26.2389 32.1437 26.2817C31.9812 26.7273 31.7821 27.1587 31.5484 27.5714C31.5425 27.5768 31.5366 27.5823 31.5306 27.5877C31.5155 27.6125 31.5002 27.6371 31.4847 27.6617C31.2447 28.081 30.9698 28.4792 30.6629 28.8523C30.657 28.8582 30.6511 28.8641 30.6451 28.87C30.3225 29.2548 29.9667 29.6105 29.582 29.9332C29.5765 29.9386 29.5711 29.944 29.5657 29.9495C29.2265 30.2319 28.8662 30.4879 28.4877 30.715C28.4724 30.7245 28.4571 30.7338 28.4418 30.7432C28.3903 30.7718 28.3384 30.8 28.2863 30.8276C28.2705 30.833 28.2548 30.8385 28.239 30.8438C27.8395 31.0703 27.4226 31.2644 26.9922 31.4243C26.9498 31.4404 26.9074 31.4562 26.8648 31.4717C26.4583 31.6158 26.0415 31.7292 25.618 31.8108C25.5934 31.8168 25.5687 31.8227 25.544 31.8285C25.5252 31.8286 25.5065 31.8286 25.4877 31.8285C25.0104 31.9116 24.527 31.9542 24.0425 31.9559C23.5773 31.956 23.1128 31.9184 22.6536 31.8433C22.5873 31.8288 22.5211 31.8135 22.4552 31.7974C21.9973 31.7112 21.5471 31.5879 21.1092 31.4287C20.6383 31.2609 20.183 31.0523 19.7484 30.8053C19.7429 30.8053 19.7375 30.8053 19.7321 30.8053C19.301 30.5531 18.8928 30.2637 18.512 29.9406C18.1277 29.6178 17.7725 29.2621 17.4503 28.8774C16.8095 28.1151 16.3059 27.2474 15.9621 26.3128C15.9621 26.3029 15.9621 26.293 15.9621 26.2831C15.7926 25.8135 15.6642 25.3299 15.5786 24.8379C15.4886 24.3469 15.4415 23.849 15.4379 23.3498C15.4415 22.8506 15.4886 22.3527 15.5786 21.8616C15.6642 21.3697 15.7926 20.8861 15.9621 20.4164C16.3028 19.4714 16.8065 18.5934 17.4503 17.8222C17.7725 17.438 18.1278 17.0828 18.512 16.7605C19.2831 16.1167 20.1612 15.613 21.1062 15.2723C21.5759 15.1028 22.0595 14.9745 22.5514 14.8888C23.0424 14.7988 23.5404 14.7518 24.0396 14.7482L24.0514 14.6564Z" fill="url(#paint0_linear_750_1468)"/>
<defs>
<linearGradient id="paint0_linear_750_1468" x1="7.29711" y1="7.12499" x2="45.9746" y2="50.1765" gradientUnits="userSpaceOnUse">
<stop stop-color="#82AFFF"/>
<stop offset="1" stop-color="#1D5BB6"/>
</linearGradient>
</defs>
</svg>
