<svg width="449" height="437" viewBox="0 0 449 437" fill="none" xmlns="http://www.w3.org/2000/svg">
<path d="M257.55 407.45L235.35 429.65C225.95 439.05 210.75 439.05 201.45 429.65L7.05 235.35C-2.35 225.95 -2.35 210.75 7.05 201.45L201.45 7.05C210.85 -2.35 226.05 -2.35 235.35 7.05L257.55 29.25C267.05 38.75 266.85 54.25 257.15 63.55L136.65 178.35H424.05C437.35 178.35 448.05 189.05 448.05 202.35V234.35C448.05 247.65 437.35 258.35 424.05 258.35H136.65L257.15 373.15C266.95 382.45 267.15 397.95 257.55 407.45Z" fill="white"/>
</svg>
