<svg width="450" height="437" viewBox="0 0 450 437" fill="none" xmlns="http://www.w3.org/2000/svg">
<path d="M191.911 29.1774L214.159 7.02564C223.58 -2.35393 238.78 -2.32093 248.059 7.09923L442.037 201.821C451.417 211.241 451.384 226.441 441.964 235.721L247.142 429.698C237.722 439.078 222.522 439.045 213.242 429.625L191.09 407.376C181.611 397.856 181.845 382.356 191.565 373.077L312.314 258.539L24.9144 257.915C11.6144 257.886 0.937675 247.163 0.966549 233.863L1.03602 201.863C1.06489 188.563 11.7881 177.887 25.0881 177.916L312.487 178.539L192.237 63.4782C182.457 54.1569 182.291 38.6565 191.911 29.1774Z" fill="white"/>
</svg>
