<svg width="413" height="413" viewBox="0 0 413 413" fill="none" xmlns="http://www.w3.org/2000/svg">
<path d="M311.186 412.989C289.48 412.989 266.622 407.803 242.996 397.815C219.946 388.019 196.704 374.573 174.038 358.246C151.565 341.727 129.859 323.287 109.306 303.118C88.9453 282.565 70.5053 260.859 54.1782 238.578C37.6591 215.528 24.4053 192.478 14.9932 170.196C5.00491 146.378 0.0107422 123.328 0.0107422 101.622C0.0107422 86.6398 2.69991 72.4257 7.88616 59.1719C13.2645 45.534 21.9082 32.8565 33.6253 21.9078C48.4157 7.30942 65.3191 0.0102539 83.3749 0.0102539C90.8662 0.0102539 98.5495 1.739 105.08 4.81234C112.572 8.26984 118.91 13.4561 123.52 20.3711L168.084 83.1823C172.117 88.7528 175.191 94.1311 177.304 99.5094C179.801 105.272 181.145 111.034 181.145 116.605C181.145 123.904 179.032 131.011 174.999 137.734C172.117 142.92 167.699 148.491 162.129 154.061L149.067 167.699C149.26 168.275 149.452 168.659 149.644 169.044C151.949 173.077 156.559 179.992 165.394 190.365C174.807 201.122 183.642 210.918 192.478 219.946C203.811 231.087 213.223 239.922 222.059 247.222C233.008 256.442 240.115 261.052 244.341 263.164L243.957 264.125L257.979 250.295C263.933 244.34 269.696 239.922 275.266 237.041C285.831 230.51 299.277 229.358 312.722 234.928C317.717 237.041 323.095 239.922 328.857 243.956L392.629 289.288C399.736 294.09 404.922 300.237 407.996 307.536C410.877 314.835 412.222 321.558 412.222 328.281C412.222 337.501 410.109 346.721 406.075 355.364C402.041 364.008 397.047 371.499 390.708 378.414C379.76 390.516 367.85 399.159 354.02 404.73C340.767 410.108 326.36 412.989 311.186 412.989ZM83.3749 28.8228C72.8103 28.8228 63.0141 33.4328 53.602 42.6528C44.7662 50.9123 38.6195 59.9403 34.7778 69.7365C30.7441 79.7248 28.8232 90.2894 28.8232 101.622C28.8232 119.486 33.0491 138.887 41.5007 158.863C50.1445 179.224 62.2457 200.353 77.6124 221.482C92.9791 242.612 110.459 263.164 129.667 282.565C148.875 301.581 169.62 319.253 190.942 334.812C211.687 349.986 233.008 362.279 254.137 371.115C286.983 385.137 317.717 388.403 343.072 377.838C352.868 373.804 361.512 367.658 369.387 358.822C373.805 354.02 377.262 348.834 380.144 342.687C382.449 337.885 383.601 332.891 383.601 327.897C383.601 324.823 383.025 321.75 381.488 318.292C380.912 317.14 379.76 315.027 376.11 312.53L312.338 267.198C308.497 264.509 305.039 262.588 301.774 261.244C297.548 259.515 295.819 257.786 289.288 261.82C285.447 263.741 281.989 266.622 278.147 270.464L263.549 284.87C256.058 292.169 244.533 293.898 235.697 290.632L230.511 288.327C222.635 284.102 213.415 277.571 203.235 268.927C194.015 261.052 184.027 251.832 171.925 239.922C162.513 230.318 153.101 220.138 143.305 208.805C134.277 198.24 127.746 189.212 123.712 181.721L121.407 175.959C120.255 171.541 119.871 169.044 119.871 166.354C119.871 159.439 122.368 153.293 127.17 148.491L141.576 133.508C145.418 129.667 148.299 126.017 150.22 122.752C151.757 120.254 152.333 118.142 152.333 116.221C152.333 114.684 151.757 112.379 150.796 110.074C149.452 107.001 147.339 103.543 144.649 99.8936L100.086 36.8903C98.1653 34.2011 95.8603 32.2803 92.9791 30.9357C89.9057 29.5911 86.6403 28.8228 83.3749 28.8228ZM243.957 264.317L240.883 277.379L246.07 263.933C245.109 263.741 244.341 263.933 243.957 264.317Z" fill="white"/>
</svg>
