<svg width="464" height="372" viewBox="0 0 464 372" fill="none" xmlns="http://www.w3.org/2000/svg">
<path d="M394.167 0.666504H69.834C51.4014 0.666504 33.7238 7.98881 20.6901 21.0226C7.65629 34.0564 0.333984 51.734 0.333984 70.1665V301.833C0.333984 320.266 7.65629 337.943 20.6901 350.977C33.7238 364.011 51.4014 371.333 69.834 371.333H394.167C412.6 371.333 430.277 364.011 443.311 350.977C456.345 337.943 463.667 320.266 463.667 301.833V70.1665C463.667 51.734 456.345 34.0564 443.311 21.0226C430.277 7.98881 412.6 0.666504 394.167 0.666504ZM378.646 46.9998L232.001 157.041L85.3557 46.9998H378.646ZM394.167 325H69.834C63.6898 325 57.7973 322.559 53.4527 318.214C49.1081 313.87 46.6673 307.977 46.6673 301.833V75.9582L218.101 204.533C222.111 207.541 226.988 209.166 232.001 209.166C237.013 209.166 241.891 207.541 245.901 204.533L417.334 75.9582V301.833C417.334 307.977 414.893 313.87 410.549 318.214C406.204 322.559 400.312 325 394.167 325Z" fill="white"/>
</svg>
