<svg fill="none" height="133" viewBox="0 0 134 133" width="134" xmlns="http://www.w3.org/2000/svg"><g fill="#000"><path d="m37.8932 42.7875c8.4667 20.3465 17.2564 41.4746 26.1767 62.9155 5.9365 1.396 7.2433 2.75 8.0729 9.406.3935 3.145.6113 6.309.6524 9.477.0696 5.749-2.3411 8.414-8.0618 8.347-9.8312-.116-19.6579-.634-29.4886-.863-3.9249-.091-7.8629.034-11.7838.256-2.9286.166-4.5944-.596-4.83-3.453-.5338-5.432-.721-10.893-.5606-16.349.2068-4.546 3.1196-6.764 7.924-7.077 1.524-.1 3.0592-.05 4.5891-.058 1.5175-.007 3.0349 0 5.0925 0-1.0967-3.944-1.9919-7.5859-3.1235-11.1531-4.0574-12.7888-8.195-25.5525-12.3037-38.3255-.1312-.4155-.317-.8172-.4227-1.2386-.7416-2.962-.7554-6.4426-2.412-8.7411-1.5181-2.1062-4.9147-2.773-7.2939-4.3587-12.42577-8.2823-13.21336-28.1569-1.54827-37.51431 7.40477-5.94051 20.58207-5.29077 28.61627 1.5056 1.6163 1.30191 3.0351 2.83164 4.2118 4.54121.413.7591 1.0488 1.3732 1.8218 1.7595.7729.3864 1.6458.5264 2.5008.4012 12.8524-.9005 25.718-1.6343 38.5592-2.67062 7.7592-.62615 7.7448-.82701 10.5178 6.39332 3.8356-.4423 7.7024-.819 11.5404-1.392.732-.1096 1.474-.894 1.996-1.5411 2.124-2.6346 4.184-5.32297 6.235-8.01789 2.671-3.51338 5.047-4.185463 9.119-2.41007 2.124.86722 4.194 1.86077 6.199 2.97523 2.354 1.38159 3.136 3.58953 2.274 5.51323-.853 1.9034-3.048 2.8019-5.618 2.0851-1.376-.354-2.687-.9235-3.885-1.6874-1.875-1.2654-3.15-.8119-4.421.8427-.9 1.1002-1.867 2.1434-2.895 3.1236-3.382 3.4254-3.567 6.608-.697 10.5014 2.074 2.813 4.087 5.6696 6.039 8.5698 1.017 1.5096 2.156 1.841 3.894 1.2746 1.846-.6702 3.781-1.0589 5.743-1.1532 1.05-.0098 2.817.9576 2.987 1.7551.229 1.0757-.417 2.9752-1.307 3.5337-2.889 1.7605-5.909 3.2953-9.035 4.5904-2.625 1.1263-4.756-.1969-6.255-2.2742-2.684-3.7156-5.354-7.4632-7.679-11.4025-1.057-1.7886-2.21-2.4423-4.135-2.4502-2.185.0434-4.37-.0882-6.5342-.3938-2.3149-.3852-3.3853.6564-4.2143 2.5853-1.7367 4.0444-1.8785 3.9118-6.3704 3.9446-6.1145.0453-12.2296.5947-18.3401.5251-7.2007-.0827-14.4026-.5067-21.5935-.9845-1.9395-.1312-3.1983.0657-4.36 1.8463-1.4768 2.267-3.4215 4.2314-5.5933 6.8403zm1.6526-18.0677c-.2159-10.4928-7.9023-17.91208-18.2114-17.57735-8.3046.26975-14.19659 6.82595-14.08041 15.66225.12142 9.1979 6.65991 15.7665 15.83021 15.4574 10.2179-.3433 17.3155-7.903 16.4616-13.5423zm-15.1292 21.0108c-.001.4813.0489.9613.149 1.4321 1.7012 4.8313 3.4845 9.6337 5.1378 14.4808 4.744 13.9091 9.4145 27.8431 14.2038 41.7355.3281.943 1.3278 2.225 2.137 2.321 2.5414.301 5.1418.11 8.0231.11l-22.8163-61.3488zm22.744-16.8148 40.9805-1.1512c-.2934-1.4288-.5179-2.4652-.7174-3.5062-.2258-1.1774-.4443-2.3568-.6399-3.5396-.5776-3.495-.5724-3.4976-4.135-3.4852-10.8033.039-21.6064.0782-32.4093.1176-1.3671.0052-2.7349 0-4.1264 0 .34 3.7641.6531 7.2144 1.0475 11.5646zm-21.4504 95.1092h37.5832v-10.364h-36.9636c-.2199 3.661-.4187 6.994-.6196 10.364z"/><path d="m22.1694 30.0825c-3.6315-.0506-6.7636-1.969-7.5748-4.6482-.9609-3.1695.3649-6.6999 3.3473-8.9071 5.3702-3.9781 10.9175-2.5631 12.6818 3.235 1.6454 5.4181-2.437 10.4043-8.4543 10.3203z"/></g></svg>